<?xml version="1.0"?>
<svg xmlns="http://www.w3.org/2000/svg" xmlns:xlink="http://www.w3.org/1999/xlink" version="1.1" id="Layer_1" x="0px" y="0px" viewBox="0 0 512 512" style="enable-background:new 0 0 512 512;" xml:space="preserve" width="512px" height="512px" class=""><g><g>
	<polygon style="fill:#324A5E;" points="279.985,388.49 268.918,413.342 228.313,504.546 184.29,504.546 232.822,388.49  " data-original="#324A5E"/>
	<polygon style="fill:#324A5E;" points="371.722,504.546 327.7,504.546 287.094,413.342 276.027,388.49 323.19,388.49    335.695,418.393  " data-original="#324A5E"/>
</g><g>
	<path style="fill:#213847;" d="M349.873,504.546H327.7l-40.606-91.205l-11.067-24.852h47.163l10.336,24.719l0,0   c-9.652,2.781-14.522,18.596-7.661,35.184L349.873,504.546z" data-original="#213847"/>
	<path style="fill:#213847;" d="M279.985,388.49l-11.067,24.852l0,0c-13.965,0-26.566,8.377-31.97,21.254l-29.361,69.951H184.29   l48.532-116.057H279.985z" data-original="#213847"/>
</g><rect x="90.91" y="47.695" style="fill:#C8D0E2;" width="371.535" height="300.268" data-original="#C8D0E2"/><path style="fill:#F88448" d="M392.251,126.159c0,11.343-9.196,20.549-20.549,20.549c-8.606,0-15.97-5.287-19.023-12.79  c-0.985-2.393-1.526-5.012-1.526-7.759c0-11.353,9.196-20.559,20.549-20.559c1.605,0,3.17,0.187,4.667,0.542  C385.467,108.249,392.251,116.411,392.251,126.159z" data-original="#579E2E" class="" data-old_color="#FD9D6C"/><path style="fill:#FCA578" d="M377.895,113.91c0,11.353-9.206,20.549-20.559,20.549c-1.605,0-3.161-0.187-4.657-0.542  c-0.985-2.393-1.526-5.012-1.526-7.759c0-11.353,9.196-20.559,20.549-20.559c1.605,0,3.17,0.187,4.667,0.542  C377.354,108.534,377.895,111.163,377.895,113.91z" data-original="#75BF4D" class="" data-old_color="#F9A174"/><path style="fill:#F8F4E8" d="M426.463,257.238c0,11.343-9.196,20.549-20.549,20.549c-8.606,0-15.97-5.287-19.023-12.79  c-0.985-2.393-1.526-5.012-1.526-7.759c0-11.353,9.196-20.559,20.549-20.559c1.605,0,3.17,0.187,4.667,0.542  C419.678,239.328,426.463,247.49,426.463,257.238z" data-original="#D1AB0D" class="active-path" data-old_color="#F2EDDC"/><path style="fill:#FDF9E7" d="M412.107,244.989c0,11.353-9.206,20.549-20.559,20.549c-1.605,0-3.161-0.187-4.657-0.542  c-0.985-2.393-1.526-5.012-1.526-7.759c0-11.353,9.196-20.559,20.549-20.559c1.605,0,3.17,0.187,4.667,0.542  C411.565,239.613,412.107,242.242,412.107,244.989z" data-original="#F8CE19" class="" data-old_color="#FBF6E1"/><path style="fill:#F88448" d="M306.913,175.939c0,11.343-9.196,20.549-20.549,20.549c-8.606,0-15.97-5.287-19.023-12.79  c-0.985-2.393-1.526-5.012-1.526-7.759c0-11.353,9.196-20.559,20.549-20.559c1.605,0,3.17,0.187,4.667,0.542  C300.129,158.029,306.913,166.191,306.913,175.939z" data-original="#579E2E" class="" data-old_color="#FD9D6C"/><path style="fill:#FCA578" d="M292.558,163.69c0,11.353-9.206,20.549-20.559,20.549c-1.605,0-3.161-0.187-4.657-0.542  c-0.985-2.393-1.526-5.012-1.526-7.759c0-11.353,9.196-20.559,20.549-20.559c1.605,0,3.17,0.187,4.667,0.542  C292.016,158.314,292.558,160.943,292.558,163.69z" data-original="#75BF4D" class="" data-old_color="#F9A174"/><path style="fill:#AEB9CC;" d="M462.444,47.695v35.161l-32.866,0.079H327.799c-76.648,0-138.924,61.877-139.404,138.524  c-0.275,43.95-0.464,90.442-0.363,126.505H90.91V47.695H462.444z" data-original="#AEB9CC" class=""/><rect x="72.665" y="5.75" style="fill:#324A5E;" width="408.812" height="43.372" data-original="#324A5E"/><path style="fill:#42647A;" d="M442.122,50.671H267.97c-4.476,0-8.104-3.628-8.104-8.104l0,0c0-4.476,3.628-8.104,8.104-8.104  h174.152c4.476,0,8.104,3.628,8.104,8.104l0,0C450.226,47.043,446.598,50.671,442.122,50.671z" data-original="#42647A" class=""/><path style="fill:#213847;" d="M481.477,5.75v21.691H210.885c-11.974,0-21.681,9.707-21.681,21.681l0,0H72.665V5.75H481.477z" data-original="#213847"/><rect x="72.665" y="347.963" style="fill:#324A5E;" width="408.812" height="43.372" data-original="#324A5E"/><path style="fill:#42647A;" d="M442.122,391.332H267.97c-4.476,0-8.104-3.628-8.104-8.104l0,0c0-4.476,3.628-8.104,8.104-8.104  h174.152c4.476,0,8.104,3.628,8.104,8.104l0,0C450.226,387.704,446.598,391.332,442.122,391.332z" data-original="#42647A" class=""/><path style="fill:#213847;" d="M481.477,347.96v21.691H210.885c-11.974,0-21.681,9.707-21.681,21.681l0,0H72.665V347.96H481.477z" data-original="#213847"/><polygon points="429.581,163.537 444.35,163.537 444.35,68.164 386.739,68.164 386.739,82.933 429.581,82.933 " data-original="#000000" class=""/><rect x="429.578" y="183.906" width="14.769" height="16.295" data-original="#000000" class=""/><path style="fill:#EF793B" d="M214.708,241.234c-7.195-4.825-14.942-8.889-23.132-12.064c-13.305-5.163-27.772-7.992-42.907-7.992  h-0.012c-15.226,0-29.785,2.863-43.17,8.096c-44.229,17.273-75.566,60.306-75.566,110.653v83.443l184.787-2.353L214.708,241.234  L214.708,241.234z" data-original="#C62E1E" class="" data-old_color="#F07A3B"/><path style="fill:#F88448" d="M353.221,256.049c0,1.605-0.118,3.18-0.335,4.726c-2.038,14.375-13.243,25.797-27.51,28.15  c-1.782,0.305-3.614,0.463-5.484,0.463H214.705v131.623l-184.783,2.353v-47.902c0-50.353,31.34-93.381,75.569-110.661  c3.988-1.566,8.084-2.905,12.268-4.027c9.846-2.658,20.214-4.066,30.897-4.066h0.01c8.635,0,17.044,0.926,25.147,2.678V222.72  h146.078c9.206,0,17.536,3.732,23.572,9.767C349.489,238.513,353.221,246.843,353.221,256.049z" data-original="#EF4C35" class="" data-old_color="#EF4C35"/><path style="fill:#EF793B" d="M353.221,256.049c0,1.605-0.118,3.18-0.335,4.726H117.76c9.846-2.658,20.214-4.066,30.897-4.066h0.01  c8.635,0,17.044,0.926,25.147,2.678V222.72h146.078c9.206,0,17.536,3.732,23.572,9.767  C349.489,238.513,353.221,246.843,353.221,256.049z" data-original="#C62E1E" class="" data-old_color="#F07A3B"/><path style="fill:#EAA96E;" d="M191.577,229.169l-14.812,17.112l-28.094,32.465l-28.302-32.418l-14.88-17.055  c13.386-5.232,27.945-8.096,43.17-8.096h0.012C163.804,221.176,178.271,224.005,191.577,229.169z" data-original="#EAA96E"/><g>
	<path style="fill:#FBCB99;" d="M176.764,246.281l-28.094,32.465l-28.302-32.418c9.062-2.219,18.538-3.393,28.29-3.393h0.012   C158.353,242.934,167.76,244.096,176.764,246.281z" data-original="#FBCB99"/>
	<path style="fill:#FBCB99;" d="M225.881,144.391c0,1.587-0.046,3.163-0.15,4.726c-0.184,3.036-0.541,6.014-1.069,8.947   c-1.162,6.509-3.14,12.742-5.831,18.573c-12.201,26.542-39.031,44.976-70.161,44.976c-31.821,0-59.144-19.239-70.954-46.724   c-2.3-5.336-4.013-10.982-5.048-16.859c-0.518-2.898-0.874-5.842-1.058-8.844c-0.115-1.587-0.16-3.185-0.16-4.795   c0-42.642,34.569-77.222,77.222-77.222C191.312,67.168,225.881,101.749,225.881,144.391z" data-original="#FBCB99"/>
</g><path style="fill:#EAA96E;" d="M224.662,158.064c-1.162,6.509-3.14,12.742-5.831,18.573c-64.538,0.345-92.77-28.336-92.77-28.336  c-14.663,14.283-33.591,22.241-48.346,26.588c-2.3-5.336-4.013-10.982-5.048-16.859c6.475-36.087,38.042-63.48,76.003-63.48  C186.631,94.551,218.199,121.966,224.662,158.064z" data-original="#EAA96E"/><path style="fill:#694B4B;" d="M225.881,144.391c0,1.587-0.046,3.163-0.15,4.726c-69.425,2.519-99.671-28.198-99.671-28.198  c-4.347,4.232-9.062,7.912-13.938,11.098c-13.949,9.142-29.175,14.317-40.514,17.17c-0.115-1.587-0.16-3.185-0.16-4.795  c0-42.642,34.569-77.222,77.222-77.222c27.531,0,51.704,14.421,65.366,36.122C221.545,115.193,225.881,129.28,225.881,144.391z" data-original="#694B4B"/><path style="fill:#563939" d="M225.881,144.391c0,1.587-0.046,3.163-0.15,4.726c-69.425,2.519-99.671-28.198-99.671-28.198  c-4.347,4.232-9.062,7.912-13.938,11.098c13.513-22.448,38.111-37.467,66.217-37.467c12.88,0,25.024,3.151,35.696,8.74  C221.545,115.193,225.881,129.28,225.881,144.391z" data-original="#563939" class=""/><path d="M490.11,57.474V0H65.73v57.474h20.299v33.805c-12.643,14.563-20.322,33.547-20.322,54.302  c0,20.755,7.679,39.738,20.322,54.303v30.473c-38.277,21.844-64.139,63.05-64.139,110.186v88.063h187.028L172.16,512h61.197  l45.429-103.07L324.216,512h61.197l-50.245-113.994H490.11v-57.473h-20.299V57.474H490.11z M80.499,42.705V14.769h394.842v27.936  h-5.53H86.029H80.499z M333.847,497.231l-43.736-99.225h28.916l43.736,99.225H333.847z M194.81,497.231l43.736-99.225h28.915  l-43.735,99.225H194.81z M89.576,413.836v-69.503H74.807v69.503H36.659v-73.294c0-45.417,27.174-84.607,66.117-102.167  l38.503,44.139v53.393h14.769v-53.393l47.084-53.977h117.158c15.441,0,28.002,12.562,28.002,28.002  c0,15.441-12.562,28.002-28.002,28.002H222.52v-8.061h-14.769v137.354H89.576z M148.664,268.513l-31.049-35.594  c9.863-2.849,20.28-4.382,31.049-4.382h34.87L148.664,268.513z M129.297,105.053c-0.123,0.253-11.806,23.509-48.736,37.203  c1.74-36.061,31.62-64.864,68.104-64.864c37.4,0,67.852,30.269,68.173,67.595c-43.486-1.415-69.961-15.569-81.154-23.183  c4.636-5.756,6.676-9.84,6.901-10.306L129.297,105.053z M125.36,132.663c11.878,8.606,41.008,25.289,90.007,27.061  c-6.531,30.833-33.953,54.045-66.703,54.045c-33.508,0-61.428-24.302-67.112-56.202C101.684,150.772,115.815,141.28,125.36,132.663z   M100.798,213.272c3.246,2.302,6.663,4.376,10.23,6.2c-3.478,1.083-6.887,2.321-10.23,3.689V213.272z M475.341,383.237H328.658  h-38.547h-22.65h-38.546h-6.394v-27.935h252.821v27.935H475.341z M455.042,340.528H222.52v-41.217h97.771  c23.583,0,42.772-19.187,42.772-42.772c0-23.585-19.187-42.772-42.772-42.772H195.832c21.604-14.991,35.789-39.959,35.789-68.189  c0-45.743-37.215-82.957-82.957-82.957c-17.82,0-34.331,5.666-47.866,15.266V57.474h354.244L455.042,340.528L455.042,340.528z" data-original="#000000" class=""/><rect x="141.282" y="351.951" width="14.769" height="18.938" data-original="#000000" class=""/><path d="M286.425,201.908c14.644,0,26.559-11.914,26.559-26.558c0-2.156-0.265-4.252-0.752-6.26l40.949-23.434  c4.782,4.631,11.291,7.489,18.458,7.489c14.644,0,26.559-11.914,26.559-26.559c0-14.645-11.915-26.559-26.559-26.559  s-26.559,11.914-26.559,26.559c0,2.156,0.265,4.252,0.752,6.26l-40.949,23.434c-4.782-4.631-11.291-7.489-18.458-7.489  c-14.644,0-26.559,11.914-26.559,26.559C259.866,189.994,271.78,201.908,286.425,201.908z M286.425,163.56  c6.501,0,11.79,5.289,11.79,11.79c0,6.5-5.288,11.789-11.79,11.789c-6.501,0-11.79-5.288-11.79-11.789  C274.635,168.85,279.923,163.56,286.425,163.56z M359.848,126.586c0-6.5,5.288-11.79,11.79-11.79s11.79,5.289,11.79,11.79  s-5.288,11.79-11.79,11.79S359.848,133.088,359.848,126.586z" data-original="#000000" class=""/><path d="M405.914,230.674c-14.644,0-26.559,11.914-26.559,26.559c0,14.644,11.915,26.559,26.559,26.559s26.559-11.914,26.559-26.559  C432.473,242.588,420.558,230.674,405.914,230.674z M405.914,269.023c-6.501,0-11.79-5.289-11.79-11.79  c0-6.5,5.288-11.79,11.79-11.79c6.5,0,11.79,5.289,11.79,11.79C417.703,263.733,412.415,269.023,405.914,269.023z" data-original="#000000" class=""/></g> </svg>
